<?xml version="1.0" encoding="UTF-8" standalone="no"?>
<!DOCTYPE svg PUBLIC "-//W3C//DTD SVG 1.1//EN"
 "http://www.w3.org/Graphics/SVG/1.1/DTD/svg11.dtd">
<!-- Generated by graphviz version 2.47.0 (20210316.0004)
 -->
<!-- Title: dependencies Pages: 1 -->
<svg width="504pt" height="284pt"
 viewBox="0.00 0.00 504.00 284.00" xmlns="http://www.w3.org/2000/svg" xmlns:xlink="http://www.w3.org/1999/xlink">
<g id="graph0" class="graph" transform="scale(1 1) rotate(0) translate(4 280)">
<title>dependencies</title>
<polygon fill="white" stroke="transparent" points="-4,4 -4,-280 500,-280 500,4 -4,4"/>
<text text-anchor="start" x="227.01" y="-42.4" font-family="Times-12" font-weight="bold" font-size="14.00">Legend</text>
<polygon fill="#ffffb3" stroke="transparent" points="14,-10 14,-30 34,-30 34,-10 14,-10"/>
<text text-anchor="start" x="37.63" y="-15.4" font-family="Times-12" font-size="14.00"> &#160;Declarations</text>
<polygon fill="#8dd3c7" stroke="transparent" points="127,-10 127,-30 147,-30 147,-10 127,-10"/>
<text text-anchor="start" x="150.73" y="-15.4" font-family="Times-12" font-size="14.00"> &#160;Module</text>
<polygon fill="#80b1d3" stroke="transparent" points="213,-10 213,-30 233,-30 233,-10 213,-10"/>
<text text-anchor="start" x="236.78" y="-15.4" font-family="Times-12" font-size="14.00"> &#160;Bootstrap</text>
<polygon fill="#fdb462" stroke="transparent" points="310,-10 310,-30 330,-30 330,-10 310,-10"/>
<text text-anchor="start" x="333.67" y="-15.4" font-family="Times-12" font-size="14.00"> &#160;Providers</text>
<polygon fill="#fb8072" stroke="transparent" points="406,-10 406,-30 426,-30 426,-10 406,-10"/>
<text text-anchor="start" x="429.73" y="-15.4" font-family="Times-12" font-size="14.00"> &#160;Exports</text>
<g id="clust1" class="cluster">
<title>cluster_AngularDraggableModule</title>
<polygon fill="none" stroke="black" stroke-dasharray="1,5" points="49,-70 49,-268 447,-268 447,-70 49,-70"/>
</g>
<g id="clust2" class="cluster">
<title>cluster_AngularDraggableModule_declarations</title>
<polygon fill="none" stroke="black" points="61,-78 61,-130 435,-130 435,-78 61,-78"/>
</g>
<g id="clust6" class="cluster">
<title>cluster_AngularDraggableModule_exports</title>
<polygon fill="none" stroke="black" points="57,-208 57,-260 439,-260 439,-208 57,-208"/>
</g>
<!-- AngularDraggableDirective -->
<g id="node1" class="node">
<title>AngularDraggableDirective</title>
<polygon fill="#ffffb3" stroke="black" points="427.26,-122 254.74,-122 254.74,-86 427.26,-86 427.26,-122"/>
<text text-anchor="middle" x="341" y="-99.8" font-family="Times,serif" font-size="14.00">AngularDraggableDirective</text>
</g>
<!-- AngularDraggableModule -->
<g id="node3" class="node">
<title>AngularDraggableModule</title>
<polygon fill="#8dd3c7" stroke="black" points="235.72,-187 232.72,-191 211.72,-191 208.72,-187 72.28,-187 72.28,-151 235.72,-151 235.72,-187"/>
<text text-anchor="middle" x="154" y="-164.8" font-family="Times,serif" font-size="14.00">AngularDraggableModule</text>
</g>
<!-- AngularDraggableDirective&#45;&gt;AngularDraggableModule -->
<g id="edge1" class="edge">
<title>AngularDraggableDirective&#45;&gt;AngularDraggableModule</title>
<path fill="none" stroke="black" d="M369.79,-122.02C369.79,-139.37 369.79,-163 369.79,-163 369.79,-163 245.89,-163 245.89,-163"/>
<polygon fill="black" stroke="black" points="245.89,-159.5 235.89,-163 245.89,-166.5 245.89,-159.5"/>
</g>
<!-- AngularResizableDirective -->
<g id="node2" class="node">
<title>AngularResizableDirective</title>
<polygon fill="#ffffb3" stroke="black" points="237.38,-122 68.62,-122 68.62,-86 237.38,-86 237.38,-122"/>
<text text-anchor="middle" x="153" y="-99.8" font-family="Times,serif" font-size="14.00">AngularResizableDirective</text>
</g>
<!-- AngularResizableDirective&#45;&gt;AngularDraggableModule -->
<g id="edge2" class="edge">
<title>AngularResizableDirective&#45;&gt;AngularDraggableModule</title>
<path fill="none" stroke="black" d="M154,-122.11C154,-122.11 154,-140.99 154,-140.99"/>
<polygon fill="black" stroke="black" points="150.5,-140.99 154,-150.99 157.5,-140.99 150.5,-140.99"/>
</g>
<!-- AngularDraggableDirective  -->
<g id="node4" class="node">
<title>AngularDraggableDirective </title>
<polygon fill="#fb8072" stroke="black" points="430.76,-252 255.24,-252 255.24,-216 430.76,-216 430.76,-252"/>
<text text-anchor="middle" x="343" y="-229.8" font-family="Times,serif" font-size="14.00">AngularDraggableDirective </text>
</g>
<!-- AngularDraggableModule&#45;&gt;AngularDraggableDirective  -->
<g id="edge3" class="edge">
<title>AngularDraggableModule&#45;&gt;AngularDraggableDirective </title>
<path fill="none" stroke="black" stroke-dasharray="5,2" d="M236.01,-175C274.68,-175 312.46,-175 312.46,-175 312.46,-175 312.46,-205.98 312.46,-205.98"/>
<polygon fill="black" stroke="black" points="308.96,-205.98 312.46,-215.98 315.96,-205.98 308.96,-205.98"/>
</g>
<!-- AngularResizableDirective  -->
<g id="node5" class="node">
<title>AngularResizableDirective </title>
<polygon fill="#fb8072" stroke="black" points="236.88,-252 65.12,-252 65.12,-216 236.88,-216 236.88,-252"/>
<text text-anchor="middle" x="151" y="-229.8" font-family="Times,serif" font-size="14.00">AngularResizableDirective </text>
</g>
<!-- AngularDraggableModule&#45;&gt;AngularResizableDirective  -->
<g id="edge4" class="edge">
<title>AngularDraggableModule&#45;&gt;AngularResizableDirective </title>
<path fill="none" stroke="black" stroke-dasharray="5,2" d="M154,-187.11C154,-187.11 154,-205.99 154,-205.99"/>
<polygon fill="black" stroke="black" points="150.5,-205.99 154,-215.99 157.5,-205.99 150.5,-205.99"/>
</g>
</g>
</svg>
